<svg viewBox="0 0 120 60" xmlns="http://www.w3.org/2000/svg">
  <defs>
    <linearGradient id="bmwBlue" x1="0%" y1="0%" x2="100%" y2="100%">
      <stop offset="0%" style="stop-color:#1C69D4;stop-opacity:1" />
      <stop offset="100%" style="stop-color:#0F4C9C;stop-opacity:1" />
    </linearGradient>
  </defs>
  <!-- BMW's iconic roundel logo -->
  <g transform="translate(8,8)">
    <!-- Outer black ring -->
    <circle cx="22" cy="22" r="18" fill="none" stroke="#000" stroke-width="2"/>
    <circle cx="22" cy="22" r="16" fill="#FFF"/>
    
    <!-- BMW quadrants -->
    <path d="M22 6 A16 16 0 0 1 38 22 L22 22 Z" fill="url(#bmwBlue)"/>
    <path d="M38 22 A16 16 0 0 1 22 38 L22 22 Z" fill="#FFF"/>
    <path d="M22 38 A16 16 0 0 1 6 22 L22 22 Z" fill="url(#bmwBlue)"/>
    <path d="M6 22 A16 16 0 0 1 22 6 L22 22 Z" fill="#FFF"/>
    
    <!-- Center circle -->
    <circle cx="22" cy="22" r="2" fill="#000"/>
    
    <!-- BMW text -->
    <text x="50" y="27" font-family="Arial, sans-serif" font-size="14" font-weight="bold" fill="#000" letter-spacing="2px">BMW</text>
  </g>
</svg>